<svg xmlns="http://www.w3.org/2000/svg" viewBox="0 0 507.47 507.47"><defs><style>.a{fill:#fbb040;}.b{fill:#f15a29;}.c{fill:#1f1b6c;}.d{fill:#f1f2f2;}.e{fill:#27aae1;}</style></defs><circle class="a" cx="253.73" cy="253.73" r="253.73"/><circle class="b" cx="253.73" cy="253.73" r="160"/><path class="c" d="M343.16,207.64h0a30,30,0,0,0-30,30v120a30,30,0,0,0,22.5,29.05v150q7.39,2.64,15,4.84V386.69a30,30,0,0,0,22.5-29.05v-120A30,30,0,0,0,343.16,207.64Z" transform="translate(-167.21 -43.9)"/><rect class="d" x="237.8" y="266.23" width="130" height="147.51" rx="17.36"/><rect class="d" x="237.8" y="192.48" width="130" height="147.51" rx="65"/><rect class="e" x="278.27" y="242.66" width="49.07" height="64.44" rx="14.8"/><rect class="d" x="547.69" y="191.22" width="90" height="102.12" rx="17.36" transform="translate(1018.18 440.66) rotate(180)"/><rect class="d" x="547.69" y="242.28" width="90" height="102.12" rx="45" transform="translate(1018.18 542.78) rotate(-180)"/><rect class="e" x="575.71" y="265.05" width="33.97" height="44.61" rx="14.8" transform="translate(1018.18 530.8) rotate(180)"/><path class="c" d="M260.94,153.91h0a42.5,42.5,0,0,0-42.5,42.5v145a42.51,42.51,0,0,0,35,41.83v105q7.26,6.39,15,12.22V383.24a42.5,42.5,0,0,0,35-41.83v-145A42.5,42.5,0,0,0,260.94,153.91Z" transform="translate(-167.21 -43.9)"/></svg>